<svg width="36" height="35" viewBox="0 0 36 35" fill="none" xmlns="http://www.w3.org/2000/svg">
<path d="M9.07061 33.2581C8.71422 33.2581 8.37243 33.1165 8.12043 32.8645C7.86843 32.6125 7.72686 32.2707 7.72686 31.9144V24.7421C6.98966 25.0938 6.17264 25.2444 5.3585 25.1788C4.66914 25.1282 3.99943 24.9262 3.39701 24.5873C2.7946 24.2483 2.27429 23.7808 1.87313 23.2179C1.47197 22.655 1.19981 22.0106 1.07603 21.3306C0.952246 20.6505 0.97988 19.9516 1.15696 19.2834C1.33405 18.6153 1.65623 17.9944 2.10057 17.4649C2.54492 16.9355 3.10051 16.5104 3.7278 16.2201C4.35509 15.9298 5.03866 15.7813 5.72987 15.7853C6.42107 15.7892 7.10291 15.9454 7.72686 16.2429V9.07061C7.72686 8.71422 7.86843 8.37243 8.12043 8.12043C8.37243 7.86843 8.71422 7.72686 9.07061 7.72686H16.9147C16.5631 6.98966 16.4124 6.17264 16.478 5.3585C16.5287 4.66914 16.7307 3.99943 17.0696 3.39701C17.4085 2.7946 17.8761 2.27429 18.4389 1.87313C19.0018 1.47197 19.6462 1.19981 20.3263 1.07603C21.0063 0.952246 21.7053 0.97988 22.3734 1.15696C23.0416 1.33405 23.6625 1.65623 24.1919 2.10057C24.7214 2.54492 25.1464 3.10051 25.4367 3.7278C25.727 4.35509 25.8755 5.03866 25.8716 5.72987C25.8676 6.42107 25.7114 7.10291 25.414 7.72686H33.2581C33.6145 7.72686 33.9563 7.86843 34.2083 8.12043C34.4603 8.37243 34.6019 8.71422 34.6019 9.07061V16.2429C33.8647 15.8912 33.0476 15.7405 32.2335 15.8062C31.5441 15.8568 30.8744 16.0588 30.272 16.3977C29.6696 16.7366 29.1493 17.2042 28.7481 17.7671C28.347 18.33 28.0748 18.9744 27.951 19.6544C27.8272 20.3344 27.8549 21.0334 28.032 21.7015C28.209 22.3697 28.5312 22.9906 28.9756 23.52C29.4199 24.0495 29.9755 24.4745 30.6028 24.7648C31.2301 25.0551 31.9137 25.2036 32.6049 25.1997C33.2961 25.1958 33.9779 25.0395 34.6019 24.7421V31.9144C34.6019 32.2707 34.4603 32.6125 34.2083 32.8645C33.9563 33.1165 33.6145 33.2581 33.2581 33.2581H9.07061Z" stroke="white" stroke-width="2" stroke-linecap="round" stroke-linejoin="round"/>
</svg>
